<svg width="640.401" height="139.702" viewBox="0 0 640.401 139.702" xmlns="http://www.w3.org/2000/svg"><g id="svgGroup" stroke-linecap="round" fill-rule="evenodd" font-size="9pt" stroke="#000" stroke-width="0.25mm" fill="#000" style="stroke:#000;stroke-width:0.25mm;fill:#000"><path d="M 20.783 94.205 A 57.055 57.055 0 0 0 29.3 94.802 A 64.304 64.304 0 0 0 33.977 94.637 Q 45.742 93.779 53.25 88.452 Q 62.2 82.102 62.2 70.302 A 21.435 21.435 0 0 0 61.929 66.827 A 15.881 15.881 0 0 0 58.95 59.702 Q 55.7 55.402 51.1 52.902 A 78.706 78.706 0 0 0 47.758 51.197 Q 45.926 50.312 43.771 49.362 A 191.837 191.837 0 0 0 38.9 47.302 A 226.021 226.021 0 0 1 37.708 46.825 Q 32.262 44.628 29.1 43.002 A 22.316 22.316 0 0 1 27.726 42.233 A 18.835 18.835 0 0 1 23.25 38.502 A 9.36 9.36 0 0 1 21.554 35.704 A 10.222 10.222 0 0 1 20.9 32.002 A 13.68 13.68 0 0 1 20.92 31.267 Q 21.056 28.733 22.147 26.733 A 10.437 10.437 0 0 1 25.45 23.152 A 15.127 15.127 0 0 1 29.364 21.255 Q 33.177 20.002 38.6 20.002 Q 44.7 20.002 48.8 22.202 A 9.745 9.745 0 0 1 50.423 23.281 A 6.595 6.595 0 0 1 52.9 28.602 A 4.82 4.82 0 0 1 52.9 28.652 Q 52.893 29.33 52.702 31.354 A 184.049 184.049 0 0 1 52.6 32.402 A 16.701 16.701 0 0 0 52.395 33.859 A 21.071 21.071 0 0 0 52.3 35.902 A 4.813 4.813 0 0 0 52.869 38.216 A 5.63 5.63 0 0 0 54.05 39.702 A 5.903 5.903 0 0 0 56.219 40.973 A 6.976 6.976 0 0 0 58.4 41.302 Q 62.1 41.302 64 38.102 Q 65.366 35.802 65.75 31.9 A 33.774 33.774 0 0 0 65.9 28.602 A 20.704 20.704 0 0 0 65.782 26.366 A 15.76 15.76 0 0 0 62.25 17.802 A 19.939 19.939 0 0 0 58.139 14.067 A 24.132 24.132 0 0 0 52.5 11.252 A 36.201 36.201 0 0 0 47.346 9.86 A 43.285 43.285 0 0 0 39.1 9.102 A 61.256 61.256 0 0 0 38.528 9.105 Q 29.088 9.193 22.05 12.202 A 30.319 30.319 0 0 0 17.851 14.383 A 23.195 23.195 0 0 0 10.95 20.902 A 21.583 21.583 0 0 0 8.68 25.133 A 22.888 22.888 0 0 0 7.1 33.702 A 23.7 23.7 0 0 0 7.472 37.991 A 17.225 17.225 0 0 0 10.55 45.252 Q 14 49.902 18.85 52.602 A 66.524 66.524 0 0 0 21.793 54.139 Q 23.828 55.142 26.234 56.184 A 150.11 150.11 0 0 0 31.4 58.302 A 255.857 255.857 0 0 1 32.535 58.759 Q 35.926 60.134 38.374 61.247 A 70.459 70.459 0 0 1 40.7 62.352 A 21.128 21.128 0 0 1 42.376 63.285 A 17.431 17.431 0 0 1 46.2 66.452 Q 48.4 68.902 48.4 72.302 Q 48.4 77.802 43.6 80.852 Q 40.3 82.949 35.251 83.604 A 38.555 38.555 0 0 1 30.3 83.902 A 60.304 60.304 0 0 1 29.965 83.901 Q 24.8 83.872 21.11 82.954 A 18.346 18.346 0 0 1 17.55 81.702 A 10.999 10.999 0 0 1 16.269 80.978 Q 14.823 80.021 14.017 78.742 A 6.866 6.866 0 0 1 13 75.002 A 15.712 15.712 0 0 1 13.006 74.576 A 13.805 13.805 0 0 1 13.15 72.902 A 33.354 33.354 0 0 0 13.16 72.834 Q 13.264 72.132 13.291 71.738 A 3.553 3.553 0 0 0 13.3 71.502 Q 13.469 70.658 13.543 69.656 A 22.557 22.557 0 0 0 13.6 68.002 Q 13.6 65.802 11.9 64.402 A 5.943 5.943 0 0 0 9.421 63.207 A 8.515 8.515 0 0 0 7.5 63.002 Q 3.8 63.002 1.9 65.902 A 9.872 9.872 0 0 0 0.756 68.399 Q 0.365 69.657 0.177 71.192 A 25.558 25.558 0 0 0 0 74.302 Q 0 84.702 8 89.752 A 27.608 27.608 0 0 0 12.643 92.086 Q 16.31 93.529 20.783 94.205 Z M 293.383 94.205 A 57.055 57.055 0 0 0 301.9 94.802 A 64.304 64.304 0 0 0 306.577 94.637 Q 318.342 93.779 325.85 88.452 Q 334.8 82.102 334.8 70.302 A 21.435 21.435 0 0 0 334.529 66.827 A 15.881 15.881 0 0 0 331.55 59.702 Q 328.3 55.402 323.7 52.902 A 78.706 78.706 0 0 0 320.358 51.197 Q 318.526 50.312 316.371 49.362 A 191.837 191.837 0 0 0 311.5 47.302 A 226.021 226.021 0 0 1 310.308 46.825 Q 304.862 44.628 301.7 43.002 A 22.316 22.316 0 0 1 300.326 42.233 A 18.835 18.835 0 0 1 295.85 38.502 A 9.36 9.36 0 0 1 294.154 35.704 A 10.222 10.222 0 0 1 293.5 32.002 A 13.68 13.68 0 0 1 293.52 31.267 Q 293.656 28.733 294.747 26.733 A 10.437 10.437 0 0 1 298.05 23.152 A 15.127 15.127 0 0 1 301.964 21.255 Q 305.777 20.002 311.2 20.002 Q 317.3 20.002 321.4 22.202 A 9.745 9.745 0 0 1 323.023 23.281 A 6.595 6.595 0 0 1 325.5 28.602 A 4.82 4.82 0 0 1 325.5 28.652 Q 325.493 29.33 325.302 31.354 A 184.049 184.049 0 0 1 325.2 32.402 A 16.701 16.701 0 0 0 324.995 33.859 A 21.071 21.071 0 0 0 324.9 35.902 A 4.813 4.813 0 0 0 325.469 38.216 A 5.63 5.63 0 0 0 326.65 39.702 A 5.903 5.903 0 0 0 328.819 40.973 A 6.976 6.976 0 0 0 331 41.302 Q 334.7 41.302 336.6 38.102 Q 337.966 35.802 338.35 31.9 A 33.774 33.774 0 0 0 338.5 28.602 A 20.704 20.704 0 0 0 338.382 26.366 A 15.76 15.76 0 0 0 334.85 17.802 A 19.939 19.939 0 0 0 330.739 14.067 A 24.132 24.132 0 0 0 325.1 11.252 A 36.201 36.201 0 0 0 319.946 9.86 A 43.285 43.285 0 0 0 311.7 9.102 A 61.256 61.256 0 0 0 311.128 9.105 Q 301.688 9.193 294.65 12.202 A 30.319 30.319 0 0 0 290.451 14.383 A 23.195 23.195 0 0 0 283.55 20.902 A 21.583 21.583 0 0 0 281.28 25.133 A 22.888 22.888 0 0 0 279.7 33.702 A 23.7 23.7 0 0 0 280.072 37.991 A 17.225 17.225 0 0 0 283.15 45.252 Q 286.6 49.902 291.45 52.602 A 66.524 66.524 0 0 0 294.393 54.139 Q 296.428 55.142 298.834 56.184 A 150.11 150.11 0 0 0 304 58.302 A 255.857 255.857 0 0 1 305.135 58.759 Q 308.526 60.134 310.974 61.247 A 70.459 70.459 0 0 1 313.3 62.352 A 21.128 21.128 0 0 1 314.976 63.285 A 17.431 17.431 0 0 1 318.8 66.452 Q 321 68.902 321 72.302 Q 321 77.802 316.2 80.852 Q 312.9 82.949 307.851 83.604 A 38.555 38.555 0 0 1 302.9 83.902 A 60.304 60.304 0 0 1 302.565 83.901 Q 297.4 83.872 293.71 82.954 A 18.346 18.346 0 0 1 290.15 81.702 A 10.999 10.999 0 0 1 288.869 80.978 Q 287.423 80.021 286.617 78.742 A 6.866 6.866 0 0 1 285.6 75.002 A 15.712 15.712 0 0 1 285.606 74.576 A 13.805 13.805 0 0 1 285.75 72.902 A 33.354 33.354 0 0 0 285.76 72.834 Q 285.864 72.132 285.891 71.738 A 3.553 3.553 0 0 0 285.9 71.502 Q 286.069 70.658 286.143 69.656 A 22.557 22.557 0 0 0 286.2 68.002 Q 286.2 65.802 284.5 64.402 A 5.943 5.943 0 0 0 282.021 63.207 A 8.515 8.515 0 0 0 280.1 63.002 Q 276.4 63.002 274.5 65.902 A 9.872 9.872 0 0 0 273.356 68.399 Q 272.965 69.657 272.777 71.192 A 25.558 25.558 0 0 0 272.6 74.302 Q 272.6 84.702 280.6 89.752 A 27.608 27.608 0 0 0 285.243 92.086 Q 288.91 93.529 293.383 94.205 Z M 250.7 82.202 L 231.5 95.102 Q 229.017 108.631 225.529 118.379 A 75.028 75.028 0 0 1 221.55 127.652 A 32.613 32.613 0 0 1 218.156 132.974 Q 215.96 135.728 213.436 137.32 A 13.857 13.857 0 0 1 205.9 139.502 A 13.461 13.461 0 0 1 202.07 138.982 A 10.533 10.533 0 0 1 197.6 136.352 A 10.575 10.575 0 0 1 194.513 129.946 A 14.662 14.662 0 0 1 194.4 128.102 Q 194.4 123.402 196.55 118.502 A 26.719 26.719 0 0 1 198.466 114.962 Q 200.711 111.419 204.55 107.252 A 84.129 84.129 0 0 1 209.145 102.668 Q 214.078 98.083 221.1 92.702 L 221.4 90.402 Q 221.936 87.569 222.589 82.86 A 380.176 380.176 0 0 0 223 79.802 Q 221.554 85.008 219.271 88.411 A 17.233 17.233 0 0 1 217.4 90.752 Q 214.594 93.675 211.544 94.32 A 8.413 8.413 0 0 1 209.8 94.502 A 8.258 8.258 0 0 1 203.387 91.554 A 12.208 12.208 0 0 1 202.45 90.352 A 15.755 15.755 0 0 1 200.053 84.617 A 22.346 22.346 0 0 1 199.6 80.002 A 98.01 98.01 0 0 1 199.899 72.173 A 75.931 75.931 0 0 1 200.6 66.252 A 78.663 78.663 0 0 1 202.246 58.566 A 98.87 98.87 0 0 1 203.9 53.002 Q 204.606 50.884 205.711 49.613 A 5.856 5.856 0 0 1 206.7 48.702 A 5.57 5.57 0 0 1 208.186 47.962 Q 209.841 47.402 212.4 47.402 Q 214.143 47.402 215.039 47.841 A 2.096 2.096 0 0 1 215.45 48.102 Q 216.277 48.783 216.3 50.125 A 4.518 4.518 0 0 1 216.3 50.202 A 3.471 3.471 0 0 1 216.262 50.635 Q 216.124 51.644 215.498 54.341 A 198.933 198.933 0 0 1 215.2 55.602 A 124.01 124.01 0 0 0 214.325 59.022 Q 213.936 60.647 213.639 62.108 A 74.279 74.279 0 0 0 213.6 62.302 Q 212.8 66.402 212.2 70.152 A 63.407 63.407 0 0 0 211.884 72.364 Q 211.6 74.652 211.6 76.302 A 10.271 10.271 0 0 0 211.674 77.593 Q 211.994 80.102 213.7 80.102 Q 215.152 80.102 217.306 77.292 A 22.589 22.589 0 0 0 217.45 77.102 A 23.883 23.883 0 0 0 218.886 74.924 Q 220.271 72.579 221.76 69.152 A 89.066 89.066 0 0 0 222.25 68.002 Q 224.203 63.332 226.067 57.02 A 175.362 175.362 0 0 0 227.2 53.002 A 12.336 12.336 0 0 1 227.783 51.293 Q 228.161 50.418 228.646 49.756 A 5.37 5.37 0 0 1 229.65 48.702 A 5.254 5.254 0 0 1 231.245 47.866 Q 232.628 47.402 234.6 47.402 Q 236.387 47.402 237.329 47.764 A 2.402 2.402 0 0 1 237.8 48.002 A 1.919 1.919 0 0 1 238.594 49.134 Q 238.687 49.472 238.699 49.883 A 4.199 4.199 0 0 1 238.7 50.002 Q 238.7 52.502 236.1 67.202 L 233.5 83.302 Q 241.2 77.502 248.5 72.702 A 7.207 7.207 0 0 1 249.283 72.28 Q 250.113 71.902 250.8 71.902 A 2.186 2.186 0 0 1 252.536 72.711 A 3.273 3.273 0 0 1 252.85 73.152 Q 253.6 74.402 253.6 76.302 Q 253.6 77.799 253.304 78.872 A 4.943 4.943 0 0 1 252.9 79.902 Q 252.2 81.202 250.7 82.202 Z M 514.05 72.494 A 2.225 2.225 0 0 0 512.3 71.702 A 3.137 3.137 0 0 0 510.44 72.319 A 4.764 4.764 0 0 0 509.6 73.102 A 124.901 124.901 0 0 1 508.065 74.898 Q 504.395 79.106 501.9 81.102 A 12.597 12.597 0 0 1 500.237 82.235 A 9.296 9.296 0 0 1 495.6 83.502 A 8.418 8.418 0 0 1 494.555 83.431 Q 493.478 83.296 492.1 82.902 Q 495.1 78.802 496.8 73.802 Q 498.5 68.802 498.5 63.502 A 29.127 29.127 0 0 0 498.49 62.738 Q 498.313 55.964 494.95 51.702 A 14.041 14.041 0 0 0 494.149 50.771 A 11.002 11.002 0 0 0 485.8 47.202 Q 482.3 47.202 479.2 48.952 Q 477.214 50.073 475.187 52.117 A 32.545 32.545 0 0 0 472.9 54.702 Q 472.8 53.502 472.8 51.002 Q 472.7 48.502 471.75 47.652 A 2.354 2.354 0 0 0 471.674 47.587 Q 470.718 46.802 468.7 46.802 Q 465.1 46.802 462.7 48.502 A 6.919 6.919 0 0 0 462.487 48.659 Q 460.305 50.334 460.4 53.102 A 186.45 186.45 0 0 1 460.465 55.394 Q 460.56 59.592 460.588 66.755 A 1684.256 1684.256 0 0 1 460.6 73.402 A 222.835 222.835 0 0 0 458.053 77.765 Q 450.567 90.937 446.7 102.152 Q 442.2 115.202 442.2 125.002 A 31.395 31.395 0 0 0 442.344 128.077 Q 442.553 130.204 443.069 131.977 A 13.795 13.795 0 0 0 444.8 135.802 A 8.288 8.288 0 0 0 449.558 139.282 A 11.783 11.783 0 0 0 452.8 139.702 Q 461.7 139.702 466.3 126.752 Q 469.175 118.658 470.761 108.084 A 167.796 167.796 0 0 0 472.2 94.502 A 20.934 20.934 0 0 0 477.53 93.725 A 23.885 23.885 0 0 0 484.1 90.702 Q 487.4 94.502 492.7 94.502 Q 499 94.502 503.95 91.102 Q 508.9 87.702 513.2 82.402 A 6.749 6.749 0 0 0 514.103 81.053 Q 515.1 79.1 515.1 76.202 Q 515.1 74.971 514.843 74.05 A 4.376 4.376 0 0 0 514.35 72.902 A 3.165 3.165 0 0 0 514.05 72.494 Z M 74 56.902 L 70.1 56.902 Q 67.1 56.902 66.05 55.802 Q 65.287 55.002 65.078 53.515 A 8.767 8.767 0 0 1 65 52.302 A 10.231 10.231 0 0 1 65.186 50.258 Q 65.828 47.124 68.688 46.752 A 6.292 6.292 0 0 1 69.5 46.702 L 75.2 46.702 Q 76.9 35.702 80.4 26.602 A 59.1 59.1 0 0 1 83.451 19.878 Q 85.892 15.329 88.85 12.102 A 20.38 20.38 0 0 1 92.179 9.139 Q 94.62 7.435 97.227 6.922 A 11.751 11.751 0 0 1 99.5 6.702 Q 103.364 6.702 105.705 9.834 A 10.433 10.433 0 0 1 106.1 10.402 A 14.264 14.264 0 0 1 108.007 15.017 Q 108.439 16.896 108.493 19.074 A 25.393 25.393 0 0 1 108.5 19.702 A 33.828 33.828 0 0 1 99.073 43.2 A 47.53 47.53 0 0 1 95.5 46.702 L 106.7 46.702 A 5.768 5.768 0 0 1 107.519 46.756 Q 108.494 46.896 109 47.402 A 1.879 1.879 0 0 1 109.395 48.016 Q 109.7 48.748 109.7 50.002 Q 109.7 56.902 98.4 56.902 L 86.2 56.902 Q 86.047 60.73 86.011 63.268 A 101.939 101.939 0 0 0 86 64.702 Q 86 75.102 88.45 79.302 A 7.985 7.985 0 0 0 94.165 83.329 A 11.441 11.441 0 0 0 96.2 83.502 Q 100.5 83.502 103.8 80.902 A 35.701 35.701 0 0 0 105.98 79.023 Q 108.339 76.833 111.192 73.571 A 115.889 115.889 0 0 0 111.6 73.102 A 4.764 4.764 0 0 1 112.44 72.319 A 3.137 3.137 0 0 1 114.3 71.702 A 2.225 2.225 0 0 1 116.05 72.494 A 3.165 3.165 0 0 1 116.35 72.902 A 4.376 4.376 0 0 1 116.843 74.05 Q 117.1 74.971 117.1 76.202 Q 117.1 79.1 116.103 81.053 A 6.749 6.749 0 0 1 115.2 82.402 A 45.062 45.062 0 0 1 109.25 88.508 A 38.566 38.566 0 0 1 105.8 91.102 A 20.322 20.322 0 0 1 95.325 94.472 A 24.839 24.839 0 0 1 94.1 94.502 A 20.157 20.157 0 0 1 84.239 92.232 Q 75.993 87.692 74.199 74.075 A 63.566 63.566 0 0 1 73.7 65.802 Q 73.7 61.402 74 56.902 Z M 511.3 56.902 L 507.4 56.902 Q 504.4 56.902 503.35 55.802 Q 502.587 55.002 502.378 53.515 A 8.767 8.767 0 0 1 502.3 52.302 A 10.231 10.231 0 0 1 502.486 50.258 Q 503.128 47.124 505.988 46.752 A 6.292 6.292 0 0 1 506.8 46.702 L 512.5 46.702 Q 514.2 35.702 517.7 26.602 A 59.1 59.1 0 0 1 520.751 19.878 Q 523.192 15.329 526.15 12.102 A 20.38 20.38 0 0 1 529.479 9.139 Q 531.92 7.435 534.527 6.922 A 11.751 11.751 0 0 1 536.8 6.702 Q 540.664 6.702 543.005 9.834 A 10.433 10.433 0 0 1 543.4 10.402 A 14.264 14.264 0 0 1 545.307 15.017 Q 545.739 16.896 545.793 19.074 A 25.393 25.393 0 0 1 545.8 19.702 A 33.828 33.828 0 0 1 536.373 43.2 A 47.53 47.53 0 0 1 532.8 46.702 L 544 46.702 A 5.768 5.768 0 0 1 544.819 46.756 Q 545.794 46.896 546.3 47.402 A 1.879 1.879 0 0 1 546.695 48.016 Q 547 48.748 547 50.002 Q 547 56.902 535.7 56.902 L 523.5 56.902 Q 523.347 60.73 523.311 63.268 A 101.939 101.939 0 0 0 523.3 64.702 Q 523.3 75.102 525.75 79.302 A 7.985 7.985 0 0 0 531.465 83.329 A 11.441 11.441 0 0 0 533.5 83.502 Q 537.8 83.502 541.1 80.902 A 35.701 35.701 0 0 0 543.28 79.023 Q 545.639 76.833 548.492 73.571 A 115.889 115.889 0 0 0 548.9 73.102 A 4.764 4.764 0 0 1 549.74 72.319 A 3.137 3.137 0 0 1 551.6 71.702 A 2.225 2.225 0 0 1 553.35 72.494 A 3.165 3.165 0 0 1 553.65 72.902 A 4.376 4.376 0 0 1 554.143 74.05 Q 554.4 74.971 554.4 76.202 Q 554.4 79.1 553.403 81.053 A 6.749 6.749 0 0 1 552.5 82.402 A 45.062 45.062 0 0 1 546.55 88.508 A 38.566 38.566 0 0 1 543.1 91.102 A 20.322 20.322 0 0 1 532.625 94.472 A 24.839 24.839 0 0 1 531.4 94.502 A 20.157 20.157 0 0 1 521.539 92.232 Q 513.293 87.692 511.499 74.075 A 63.566 63.566 0 0 1 511 65.802 Q 511 61.402 511.3 56.902 Z M 383.887 91.554 A 8.258 8.258 0 0 0 390.3 94.502 A 8.146 8.146 0 0 0 391.796 94.364 Q 393.613 94.026 395.315 92.854 A 13.966 13.966 0 0 0 397.6 90.852 A 16.276 16.276 0 0 0 399.292 88.682 Q 400.441 86.932 401.331 84.705 A 33.504 33.504 0 0 0 402.7 80.402 A 33.051 33.051 0 0 0 402.872 83.878 Q 403.08 85.838 403.538 87.463 A 13.395 13.395 0 0 0 404.95 90.802 A 7.25 7.25 0 0 0 409.125 94.103 A 9.788 9.788 0 0 0 412 94.502 Q 418.3 94.502 423.25 91.102 Q 428.2 87.702 432.5 82.402 A 6.749 6.749 0 0 0 433.403 81.053 Q 434.4 79.1 434.4 76.202 Q 434.4 74.971 434.143 74.05 A 4.376 4.376 0 0 0 433.65 72.902 A 3.165 3.165 0 0 0 433.35 72.494 A 2.225 2.225 0 0 0 431.6 71.702 A 3.137 3.137 0 0 0 429.74 72.319 A 4.764 4.764 0 0 0 428.9 73.102 Q 424.3 78.602 421.55 81.052 A 18.563 18.563 0 0 1 420.985 81.536 Q 419.51 82.747 418.264 83.212 A 4.196 4.196 0 0 1 416.8 83.502 A 3.186 3.186 0 0 1 416.755 83.502 Q 415.486 83.484 414.7 82.452 A 3.349 3.349 0 0 1 414.268 81.687 Q 413.9 80.79 413.9 79.502 Q 413.9 77.064 415.749 68.157 A 426.31 426.31 0 0 1 416.7 63.702 A 447.762 447.762 0 0 0 417.011 62.298 Q 419.2 52.341 419.2 50.002 A 4.334 4.334 0 0 0 419.18 49.572 Q 419.141 49.183 419.028 48.871 A 1.727 1.727 0 0 0 418.3 47.952 A 2.52 2.52 0 0 0 417.809 47.727 Q 416.868 47.402 415.1 47.402 Q 413.128 47.402 411.745 47.866 A 5.254 5.254 0 0 0 410.15 48.702 A 5.37 5.37 0 0 0 409.146 49.756 Q 408.661 50.418 408.283 51.293 A 12.336 12.336 0 0 0 407.7 53.002 A 175.362 175.362 0 0 1 406.567 57.02 Q 404.703 63.332 402.75 68.002 A 89.066 89.066 0 0 1 402.26 69.152 Q 400.771 72.579 399.386 74.924 A 23.883 23.883 0 0 1 397.95 77.102 A 22.589 22.589 0 0 1 397.806 77.292 Q 395.652 80.102 394.2 80.102 A 2.428 2.428 0 0 1 393.778 80.067 A 1.635 1.635 0 0 1 392.6 79.252 A 2.43 2.43 0 0 1 392.402 78.811 Q 392.1 77.934 392.1 76.302 Q 392.1 72.802 394.1 62.302 A 74.279 74.279 0 0 1 394.139 62.108 Q 394.436 60.647 394.825 59.022 A 124.01 124.01 0 0 1 395.7 55.602 A 198.933 198.933 0 0 0 395.998 54.341 Q 396.624 51.644 396.762 50.635 A 3.471 3.471 0 0 0 396.8 50.202 A 4.518 4.518 0 0 0 396.8 50.125 Q 396.777 48.783 395.95 48.102 A 2.096 2.096 0 0 0 395.539 47.841 Q 394.643 47.402 392.9 47.402 Q 390.341 47.402 388.686 47.962 A 5.57 5.57 0 0 0 387.2 48.702 A 5.856 5.856 0 0 0 386.211 49.613 Q 385.106 50.884 384.4 53.002 A 98.87 98.87 0 0 0 382.746 58.566 A 78.663 78.663 0 0 0 381.1 66.252 A 75.931 75.931 0 0 0 380.399 72.173 A 98.01 98.01 0 0 0 380.1 80.002 A 22.346 22.346 0 0 0 380.553 84.617 A 15.755 15.755 0 0 0 382.95 90.352 A 12.208 12.208 0 0 0 383.887 91.554 Z M 465.95 72.494 A 2.225 2.225 0 0 0 464.2 71.702 A 3.137 3.137 0 0 0 462.34 72.319 A 4.764 4.764 0 0 0 461.5 73.102 A 114.077 114.077 0 0 1 459.931 74.927 Q 456.178 79.198 453.6 81.152 A 11.432 11.432 0 0 1 451.026 82.629 A 12.07 12.07 0 0 1 446.4 83.502 A 7.266 7.266 0 0 1 445.843 83.481 A 5.299 5.299 0 0 1 442.2 81.752 A 5.382 5.382 0 0 1 441.889 81.378 Q 440.53 79.592 439.9 75.902 A 173.045 173.045 0 0 0 446.504 66.248 A 144.803 144.803 0 0 0 457.8 44.802 Q 464.4 29.102 464.4 17.202 Q 464.4 12.014 463.326 8.331 A 15.715 15.715 0 0 0 461.65 4.452 A 11.661 11.661 0 0 0 460.547 2.94 A 8.163 8.163 0 0 0 454.1 0.002 Q 445.6 0.002 439.45 11.202 A 69.439 69.439 0 0 0 439.042 11.956 Q 436.007 17.649 433.727 24.449 A 113.014 113.014 0 0 0 430.15 38.002 Q 427 53.602 427 65.802 A 68.156 68.156 0 0 0 427.159 70.537 Q 427.462 74.89 428.345 78.602 A 33.079 33.079 0 0 0 431.25 86.502 A 19.197 19.197 0 0 0 432.343 88.317 Q 436.563 94.502 444.3 94.502 A 23.66 23.66 0 0 0 444.325 94.502 A 20.024 20.024 0 0 0 455.75 91.102 A 38.929 38.929 0 0 0 459.432 88.285 A 46.036 46.036 0 0 0 465.1 82.402 A 6.749 6.749 0 0 0 466.003 81.053 Q 467 79.1 467 76.202 Q 467 74.971 466.743 74.05 A 4.376 4.376 0 0 0 466.25 72.902 A 3.165 3.165 0 0 0 465.95 72.494 Z M 158.626 93.919 A 5.504 5.504 0 0 0 161.2 94.502 A 10.201 10.201 0 0 0 162.187 94.456 Q 164.542 94.227 165.75 92.852 A 5.867 5.867 0 0 0 166.401 91.928 Q 167.454 90.117 168.3 86.502 Q 169.8 80.402 172.2 74.902 A 70.092 70.092 0 0 1 173.422 72.247 Q 175.222 68.551 177.05 66.052 A 26.164 26.164 0 0 1 177.389 65.599 Q 178.944 63.566 180.095 62.96 A 1.962 1.962 0 0 1 181 62.702 A 1.452 1.452 0 0 1 181.06 62.703 Q 181.891 62.737 182.058 63.738 A 3.445 3.445 0 0 1 182.1 64.302 A 6.958 6.958 0 0 1 182.097 64.514 Q 182.073 65.271 181.9 67.002 Q 181.6 68.502 181.6 70.002 A 13.03 13.03 0 0 0 181.819 72.443 A 8.982 8.982 0 0 0 184.35 77.302 A 8.226 8.226 0 0 0 186.235 78.682 Q 187.595 79.412 189.337 79.738 A 16.655 16.655 0 0 0 192.4 80.002 Q 196.6 80.002 200.35 77.952 A 30.23 30.23 0 0 0 200.642 77.79 A 26.989 26.989 0 0 0 206.9 73.002 A 6.529 6.529 0 0 0 207.503 72.27 Q 208.326 71.107 208.664 69.557 A 11.042 11.042 0 0 0 208.9 67.202 Q 208.9 66.189 208.687 65.389 A 4.252 4.252 0 0 0 208.15 64.152 A 3.075 3.075 0 0 0 207.876 63.791 A 2.27 2.27 0 0 0 206.1 63.002 A 3.002 3.002 0 0 0 205.452 63.073 Q 204.397 63.306 203.4 64.302 Q 200.306 67.396 198.004 68.314 A 4.895 4.895 0 0 1 196.2 68.702 A 3.465 3.465 0 0 1 196.099 68.7 Q 193.7 68.63 193.7 65.202 A 5.629 5.629 0 0 1 193.735 64.651 Q 193.868 63.364 194.5 60.202 Q 195.4 55.202 195.4 53.902 A 9.576 9.576 0 0 0 195.123 51.495 Q 194.357 48.55 191.473 47.724 A 9.357 9.357 0 0 0 188.9 47.402 A 10.337 10.337 0 0 0 187.166 47.553 Q 184.588 47.991 181.65 49.702 A 18.98 18.98 0 0 0 179.329 51.311 Q 176.502 53.58 173.6 57.402 A 39.284 39.284 0 0 0 171.952 59.751 Q 168.823 64.566 166.2 71.402 A 103.09 103.09 0 0 1 166.47 68.789 Q 166.788 66.064 167.2 64.002 A 111.739 111.739 0 0 1 167.614 62.029 Q 168.113 59.752 168.8 57.002 A 131.293 131.293 0 0 0 169.305 55.063 Q 170.033 52.168 170.229 50.693 A 7.037 7.037 0 0 0 170.3 49.802 Q 170.3 49.14 170.122 48.679 A 1.541 1.541 0 0 0 169.5 47.902 A 2.213 2.213 0 0 0 169.084 47.704 Q 168.254 47.402 166.7 47.402 A 17.019 17.019 0 0 0 164.889 47.493 Q 163.797 47.61 162.888 47.878 A 7.202 7.202 0 0 0 160.95 48.752 A 6.654 6.654 0 0 0 158.837 51.045 A 9.683 9.683 0 0 0 158 53.002 A 76.942 76.942 0 0 0 157.445 54.838 A 81.944 81.944 0 0 0 154.3 77.702 A 85.718 85.718 0 0 0 154.352 80.754 Q 154.504 85.003 155.101 87.872 A 16.809 16.809 0 0 0 155.85 90.502 A 8.457 8.457 0 0 0 156.591 91.991 Q 157.419 93.292 158.626 93.919 Z M 590.126 93.919 A 5.504 5.504 0 0 0 592.7 94.502 A 10.201 10.201 0 0 0 593.687 94.456 Q 596.042 94.227 597.25 92.852 A 5.867 5.867 0 0 0 597.901 91.928 Q 598.954 90.117 599.8 86.502 Q 601.3 80.402 603.7 74.902 A 70.092 70.092 0 0 1 604.922 72.247 Q 606.722 68.551 608.55 66.052 A 26.164 26.164 0 0 1 608.889 65.599 Q 610.444 63.566 611.595 62.96 A 1.962 1.962 0 0 1 612.5 62.702 A 1.452 1.452 0 0 1 612.56 62.703 Q 613.391 62.737 613.558 63.738 A 3.445 3.445 0 0 1 613.6 64.302 A 6.958 6.958 0 0 1 613.597 64.514 Q 613.573 65.271 613.4 67.002 Q 613.1 68.502 613.1 70.002 A 13.03 13.03 0 0 0 613.319 72.443 A 8.982 8.982 0 0 0 615.85 77.302 A 8.226 8.226 0 0 0 617.735 78.682 Q 619.095 79.412 620.837 79.738 A 16.655 16.655 0 0 0 623.9 80.002 Q 628.1 80.002 631.85 77.952 A 30.23 30.23 0 0 0 632.142 77.79 A 26.989 26.989 0 0 0 638.4 73.002 A 6.529 6.529 0 0 0 639.003 72.27 Q 639.826 71.107 640.164 69.557 A 11.042 11.042 0 0 0 640.4 67.202 Q 640.4 66.189 640.187 65.389 A 4.252 4.252 0 0 0 639.65 64.152 A 3.075 3.075 0 0 0 639.376 63.791 A 2.27 2.27 0 0 0 637.6 63.002 A 3.002 3.002 0 0 0 636.952 63.073 Q 635.897 63.306 634.9 64.302 Q 631.806 67.396 629.504 68.314 A 4.895 4.895 0 0 1 627.7 68.702 A 3.465 3.465 0 0 1 627.599 68.7 Q 625.2 68.63 625.2 65.202 A 5.629 5.629 0 0 1 625.235 64.651 Q 625.368 63.364 626 60.202 Q 626.9 55.202 626.9 53.902 A 9.576 9.576 0 0 0 626.623 51.495 Q 625.857 48.55 622.973 47.724 A 9.357 9.357 0 0 0 620.4 47.402 A 10.337 10.337 0 0 0 618.666 47.553 Q 616.088 47.991 613.15 49.702 A 18.98 18.98 0 0 0 610.829 51.311 Q 608.002 53.58 605.1 57.402 A 39.284 39.284 0 0 0 603.452 59.751 Q 600.323 64.566 597.7 71.402 A 103.09 103.09 0 0 1 597.97 68.789 Q 598.288 66.064 598.7 64.002 A 111.739 111.739 0 0 1 599.114 62.029 Q 599.613 59.752 600.3 57.002 A 131.293 131.293 0 0 0 600.805 55.063 Q 601.533 52.168 601.729 50.693 A 7.037 7.037 0 0 0 601.8 49.802 Q 601.8 49.14 601.622 48.679 A 1.541 1.541 0 0 0 601 47.902 A 2.213 2.213 0 0 0 600.584 47.704 Q 599.754 47.402 598.2 47.402 A 17.019 17.019 0 0 0 596.389 47.493 Q 595.297 47.61 594.388 47.878 A 7.202 7.202 0 0 0 592.45 48.752 A 6.654 6.654 0 0 0 590.337 51.045 A 9.683 9.683 0 0 0 589.5 53.002 A 76.942 76.942 0 0 0 588.945 54.838 A 81.944 81.944 0 0 0 585.8 77.702 A 85.718 85.718 0 0 0 585.852 80.754 Q 586.004 85.003 586.601 87.872 A 16.809 16.809 0 0 0 587.35 90.502 A 8.457 8.457 0 0 0 588.091 91.991 Q 588.919 93.292 590.126 93.919 Z M 356.177 93.846 A 27.786 27.786 0 0 0 362.4 94.502 A 25.824 25.824 0 0 0 369.008 93.613 A 33.965 33.965 0 0 0 375.05 91.352 Q 381.6 88.202 386.3 82.402 A 7.94 7.94 0 0 0 386.373 82.309 Q 388.2 79.929 388.2 76.202 Q 388.2 74.971 387.943 74.05 A 4.376 4.376 0 0 0 387.45 72.902 A 3.165 3.165 0 0 0 387.15 72.494 A 2.225 2.225 0 0 0 385.4 71.702 A 3.137 3.137 0 0 0 383.54 72.319 A 4.764 4.764 0 0 0 382.7 73.102 A 52.277 52.277 0 0 1 381.706 74.257 Q 379.752 76.46 377.77 78.169 A 29.142 29.142 0 0 1 373.35 81.352 A 27.22 27.22 0 0 1 372.023 82.073 Q 368.022 84.102 364.5 84.102 Q 354.4 84.102 354.4 72.502 A 27.259 27.259 0 0 1 354.517 69.945 A 22.235 22.235 0 0 1 355.6 64.802 Q 356.8 61.302 358.8 59.252 Q 359.503 58.531 360.244 58.064 A 5.272 5.272 0 0 1 363.1 57.202 A 4.051 4.051 0 0 1 363.154 57.202 Q 363.554 57.207 363.892 57.292 A 2.108 2.108 0 0 1 364.95 57.902 Q 365.6 58.602 365.6 59.902 A 7.712 7.712 0 0 1 365.467 61.296 A 10.395 10.395 0 0 1 365.1 62.702 Q 365 63.102 364.8 64.002 A 10.596 10.596 0 0 0 364.748 64.251 Q 364.675 64.619 364.639 64.951 A 5.907 5.907 0 0 0 364.6 65.602 A 4.141 4.141 0 0 0 364.615 65.955 A 2.922 2.922 0 0 0 365.75 68.102 Q 366.487 68.678 367.531 68.886 A 6.523 6.523 0 0 0 368.8 69.002 A 5.166 5.166 0 0 0 372.321 67.685 A 7.342 7.342 0 0 0 373.65 66.102 Q 375.5 63.202 375.5 59.002 A 15.224 15.224 0 0 0 375.354 56.859 A 11.115 11.115 0 0 0 372.45 50.652 A 9.938 9.938 0 0 0 367.392 47.786 A 14.959 14.959 0 0 0 363.9 47.402 A 18.46 18.46 0 0 0 359.264 47.989 A 20.649 20.649 0 0 0 353.2 50.702 A 22.297 22.297 0 0 0 348.771 54.483 A 27.034 27.034 0 0 0 344.9 60.102 A 26.913 26.913 0 0 0 342.451 66.924 A 34.687 34.687 0 0 0 341.7 74.302 A 26.418 26.418 0 0 0 342.044 78.646 A 18.699 18.699 0 0 0 347.15 88.952 A 17.026 17.026 0 0 0 348.557 90.234 Q 351.749 92.829 356.177 93.846 Z M 592.65 72.494 A 2.225 2.225 0 0 0 590.9 71.702 A 3.137 3.137 0 0 0 589.04 72.319 A 4.764 4.764 0 0 0 588.2 73.102 Q 584 78.202 578.25 81.352 A 34.393 34.393 0 0 1 575.549 82.688 Q 571.415 84.502 568 84.502 A 19.888 19.888 0 0 1 567.023 84.478 Q 565.152 84.386 563.635 83.933 A 8.254 8.254 0 0 1 558.5 79.902 Q 566.256 77.996 571.052 75.204 A 20.43 20.43 0 0 0 575.25 72.052 Q 580.2 67.102 580.2 60.202 A 16.681 16.681 0 0 0 579.892 56.915 A 11.46 11.46 0 0 0 576.7 50.852 Q 573.2 47.402 567.4 47.402 Q 560.9 47.402 555.75 50.902 Q 550.6 54.402 547.7 60.352 Q 544.8 66.302 544.8 73.202 A 27.897 27.897 0 0 0 545.381 79.046 A 18.867 18.867 0 0 0 550.6 88.802 Q 556.4 94.502 566.9 94.502 Q 574.6 94.502 581.35 90.702 A 53.631 53.631 0 0 0 583.114 89.665 Q 588.599 86.295 591.8 82.402 A 6.749 6.749 0 0 0 592.703 81.053 Q 593.7 79.1 593.7 76.202 Q 593.7 74.971 593.443 74.05 A 4.376 4.376 0 0 0 592.95 72.902 A 3.165 3.165 0 0 0 592.65 72.494 Z M 161.659 64.087 A 2.055 2.055 0 0 0 160 63.302 A 4.008 4.008 0 0 0 159.733 63.311 Q 159.228 63.345 158.6 63.502 A 89.607 89.607 0 0 1 155.593 64.235 Q 150.976 65.274 147.4 65.502 A 27.657 27.657 0 0 0 147.054 63.141 A 21.86 21.86 0 0 0 141.95 52.552 A 14.981 14.981 0 0 0 135.538 48.219 A 17.814 17.814 0 0 0 129.7 47.302 Q 123.5 47.302 118.4 50.652 A 21.614 21.614 0 0 0 114.752 53.666 A 24.072 24.072 0 0 0 110.4 59.952 A 27.572 27.572 0 0 0 108.307 65.945 A 34.036 34.036 0 0 0 107.5 73.502 A 28.272 28.272 0 0 0 107.504 73.938 A 24.553 24.553 0 0 0 109.7 83.902 Q 111.9 88.702 116.15 91.602 A 16.069 16.069 0 0 0 121.322 93.906 A 20.705 20.705 0 0 0 126.4 94.502 A 18.053 18.053 0 0 0 132.951 93.307 A 19.822 19.822 0 0 0 139.1 89.452 A 22.918 22.918 0 0 0 144.006 83.141 A 28.513 28.513 0 0 0 146.6 76.002 A 52.306 52.306 0 0 0 151.01 75.635 A 42.89 42.89 0 0 0 159.8 73.602 A 3.589 3.589 0 0 0 162.052 71.568 Q 162.691 70.191 162.7 67.967 A 15.748 15.748 0 0 0 162.7 67.902 A 10.564 10.564 0 0 0 162.684 67.318 Q 162.644 66.591 162.501 65.968 A 5.429 5.429 0 0 0 162 64.602 A 3.16 3.16 0 0 0 161.659 64.087 Z M 447.718 15.499 A 55.086 55.086 0 0 0 446.7 18.202 Q 443.8 26.502 441.6 38.802 A 156.343 156.343 0 0 0 439.521 55.242 A 134.668 134.668 0 0 0 439.2 62.402 A 133.727 133.727 0 0 0 448.064 45.191 A 116.899 116.899 0 0 0 450.5 38.952 Q 454.251 28.458 454.652 19.6 A 46.382 46.382 0 0 0 454.7 17.502 A 31.509 31.509 0 0 0 454.618 15.114 Q 454.219 9.902 451.9 9.902 Q 450.012 9.902 447.718 15.499 Z M 453.6 129.902 A 1.763 1.763 0 0 0 454.933 129.121 Q 456.764 126.873 458.1 118.152 A 168.174 168.174 0 0 0 459.267 108.531 Q 459.678 104.185 459.961 99.278 A 357.843 357.843 0 0 0 460.4 88.902 A 160.858 160.858 0 0 0 455.929 100.46 A 129.788 129.788 0 0 0 453.6 108.002 Q 451.869 114.303 451.337 119.213 A 38.049 38.049 0 0 0 451.1 123.302 Q 451.1 126.265 451.743 127.941 A 5.701 5.701 0 0 0 451.85 128.202 A 5.794 5.794 0 0 0 452.19 128.864 Q 452.605 129.548 453.086 129.781 A 1.166 1.166 0 0 0 453.6 129.902 Z M 472.7 84.902 A 12.098 12.098 0 0 0 477.188 82.84 A 16.374 16.374 0 0 0 479.35 80.952 A 21.598 21.598 0 0 0 482.953 75.912 A 26.746 26.746 0 0 0 484.2 73.152 Q 486 68.502 486 63.402 Q 486 61.477 485.506 60.15 A 4.884 4.884 0 0 0 484.8 58.852 Q 483.6 57.302 481.6 57.302 Q 478.239 57.302 473.571 63.926 A 51.799 51.799 0 0 0 472.9 64.902 A 278.326 278.326 0 0 0 472.856 67.358 Q 472.818 70.155 472.806 74.043 A 1212.461 1212.461 0 0 0 472.8 77.802 A 354.497 354.497 0 0 1 472.794 79.971 Q 472.775 83.027 472.7 84.902 Z M 129.8 57.902 L 129.3 57.902 A 7.373 7.373 0 0 0 123.783 60.347 A 11.395 11.395 0 0 0 122.65 61.752 A 13.286 13.286 0 0 0 120.91 65.48 Q 120 68.5 120 72.602 A 22.559 22.559 0 0 0 120.205 75.749 Q 120.664 78.997 122.15 81.002 A 8.845 8.845 0 0 0 123.567 82.531 A 5.53 5.53 0 0 0 127.2 83.902 A 7.088 7.088 0 0 0 132.226 81.839 A 9.727 9.727 0 0 0 132.75 81.302 A 10.806 10.806 0 0 0 134.536 78.53 Q 135.111 77.274 135.5 75.741 A 22.846 22.846 0 0 0 135.9 73.802 Q 132.8 71.702 131.15 68.302 Q 129.5 64.902 129.5 61.102 Q 129.5 59.502 129.8 57.902 Z M 96.8 16.302 A 1.619 1.619 0 0 0 95.885 16.628 Q 94.881 17.321 93.74 19.484 A 23.496 23.496 0 0 0 93.45 20.052 Q 91.6 23.802 89.95 30.452 Q 88.3 37.102 87.2 45.202 A 36.677 36.677 0 0 0 93.166 38.705 A 31.376 31.376 0 0 0 96.05 33.752 A 37.252 37.252 0 0 0 97.848 29.151 Q 98.638 26.615 98.886 24.29 A 19.652 19.652 0 0 0 99 22.202 Q 99 17.648 97.69 16.609 A 1.392 1.392 0 0 0 96.8 16.302 Z M 534.1 16.302 A 1.619 1.619 0 0 0 533.185 16.628 Q 532.181 17.321 531.04 19.484 A 23.496 23.496 0 0 0 530.75 20.052 Q 528.9 23.802 527.25 30.452 Q 525.6 37.102 524.5 45.202 A 36.677 36.677 0 0 0 530.466 38.705 A 31.376 31.376 0 0 0 533.35 33.752 A 37.252 37.252 0 0 0 535.148 29.151 Q 535.938 26.615 536.186 24.29 A 19.652 19.652 0 0 0 536.3 22.202 Q 536.3 17.648 534.99 16.609 A 1.392 1.392 0 0 0 534.1 16.302 Z M 212.194 124.742 A 36.133 36.133 0 0 0 212.6 124.002 Q 215 119.512 217.4 110.407 A 184.128 184.128 0 0 0 218.8 104.702 A 90.074 90.074 0 0 0 214.403 108.652 Q 210.022 112.874 207.65 116.552 Q 205.475 119.926 204.671 122.763 A 11.534 11.534 0 0 0 204.2 125.902 Q 204.2 127.602 204.85 128.702 Q 205.5 129.802 207 129.802 Q 209.335 129.802 212.194 124.742 Z M 556.9 71.902 L 556.9 72.102 A 31.232 31.232 0 0 0 560.935 70.87 Q 562.981 70.08 564.604 69.053 A 15.789 15.789 0 0 0 566.2 67.902 A 10.841 10.841 0 0 0 568.136 65.871 A 7.5 7.5 0 0 0 569.6 61.402 A 5.579 5.579 0 0 0 569.453 60.085 A 3.877 3.877 0 0 0 568.55 58.352 A 3.462 3.462 0 0 0 566.452 57.257 A 4.943 4.943 0 0 0 565.7 57.202 A 6.081 6.081 0 0 0 561.524 58.882 Q 560.406 59.889 559.45 61.502 Q 556.9 65.802 556.9 71.902 Z" vector-effect="non-scaling-stroke"/></g></svg>